<?xml version="1.0" standalone="no"?>
<!DOCTYPE svg PUBLIC "-//W3C//DTD SVG 20010904//EN"
 "http://www.w3.org/TR/2001/REC-SVG-20010904/DTD/svg10.dtd">
<svg version="1.0" xmlns="http://www.w3.org/2000/svg"
 width="857.000000pt" height="857.000000pt" viewBox="0 0 857.000000 857.000000"
 preserveAspectRatio="xMidYMid meet">
<metadata>
Created by potrace 1.11, written by Peter Selinger 2001-2013
</metadata>
<g transform="translate(0.000000,857.000000) scale(0.100000,-0.100000)"
fill="#000000" stroke="none">
<path d="M849 8552 c-3 -111 0 -8533 4 -8539 6 -9 99 -9 115 1 6 3 13 3 15 -1
6 -10 210 -8 226 1 6 4 11 4 11 -1 0 -4 43 -8 95 -8 52 0 95 2 95 5 0 5 46 5
60 0 17 -6 529 -1 539 4 6 4 11 4 11 -1 0 -4 45 -8 100 -8 55 0 100 4 100 8 0
5 5 5 11 1 17 -10 60 -11 87 -2 12 4 22 4 22 0 0 -4 45 -7 100 -7 55 0 100 4
100 8 0 5 5 5 11 1 17 -10 60 -11 87 -2 12 4 22 4 22 0 0 -4 39 -6 87 -4 49 1
93 2 98 2 6 1 42 -1 82 -2 40 -2 69 1 66 6 -4 5 -1 6 6 2 17 -11 131 -14 137
-4 3 5 10 5 16 2 15 -10 408 -10 408 -1 0 5 5 5 12 1 16 -10 228 -11 228 -1 0
5 5 5 11 1 14 -8 159 -12 159 -4 0 5 46 5 60 0 17 -6 529 -1 539 4 6 4 11 4
11 -1 0 -4 45 -8 100 -8 55 0 100 4 100 8 0 5 5 5 11 1 17 -10 60 -11 86 -2
13 4 23 4 23 0 0 -6 167 -8 195 -2 6 1 15 1 20 0 24 -6 62 -5 83 2 12 4 22 4
22 0 0 -4 39 -6 87 -4 49 1 93 2 98 2 6 1 42 -1 82 -2 40 -2 69 1 66 6 -4 5
-1 6 6 2 17 -11 131 -14 137 -4 3 5 10 5 16 2 15 -10 408 -10 408 -1 0 5 5 5
12 1 16 -10 228 -11 228 -1 0 5 5 5 11 1 14 -8 159 -12 159 -4 0 5 46 5 60 0
17 -6 529 -1 539 4 6 4 11 4 11 -1 0 -4 45 -8 100 -8 55 0 100 4 100 8 0 5 5
5 11 1 17 -10 60 -11 87 -2 12 4 22 4 22 0 0 -9 182 -8 196 0 5 4 16 3 24 -2
42 -26 40 -222 40 4280 l0 4278 -3435 0 c-3187 0 -3435 -1 -3436 -16z"/>
</g>
</svg>
